<?xml version="1.0" encoding="UTF-8" standalone="no"?><!DOCTYPE svg PUBLIC "-//W3C//DTD SVG 1.1//EN" "http://www.w3.org/Graphics/SVG/1.1/DTD/svg11.dtd"><svg width="100%" height="100%" viewBox="0 0 417 417" version="1.1" xmlns="http://www.w3.org/2000/svg" xmlns:xlink="http://www.w3.org/1999/xlink" xml:space="preserve" xmlns:serif="http://www.serif.com/" style="fill-rule:evenodd;clip-rule:evenodd;stroke-linejoin:round;stroke-miterlimit:2;"><rect id="Artboard2" x="0" y="0" width="416.667" height="416.667" style="fill:none;"/><clipPath id="_clip1"><rect x="0" y="0" width="416.667" height="416.667"/></clipPath><g clip-path="url(#_clip1)"><g id="Artboard1"><rect x="-0.001" y="0" width="208.332" height="208.332" style="fill:none;"/><g><g id="Group"><g id="Social-Media"><g id="Frank-Logo-Grey"><g id="Group1" serif:id="Group"><path id="Combined-Shape" d="M309.626,-0c4.872,-0 10.118,0.385 15.363,1.154c25.855,4.637 43.088,22.382 43.088,47.842l-0,1.549c-1.122,20.438 -14.242,37.03 -30.353,37.03c-1.495,-0 -2.617,-0 -4.124,-0.385c-13.109,-2.318 -22.478,-14.273 -22.478,-28.162c-0,-2.703 0.374,-5.406 1.122,-8.099c3.75,-17.361 19.113,-30.865 32.222,-30.865c1.132,0 1.88,0.385 3.002,0.385c-7.489,-4.626 -13.494,-7.714 -19.113,-8.494c-2.244,-0.384 -4.487,-0.384 -6.742,-0.384c-22.852,-0 -44.594,20.064 -64.829,106.869l-3.376,14.135l108.355,-0c3.493,-0 6.314,2.831 6.314,6.314c-0,3.483 -2.821,6.314 -6.314,6.314l-111.421,-0.011c-4.242,17.052 -8.451,36.443 -13.024,56.827l124.445,0c3.493,0 6.314,2.831 6.314,6.314c-0,3.483 -2.821,6.314 -6.314,6.314l-127.297,-0.01c-4.263,18.686 -8.9,37.948 -14.199,56.837l142.009,-0.01c3.483,-0 6.314,2.831 6.314,6.314c-0,3.483 -2.831,6.314 -6.314,6.314l-145.673,-0c-21.229,70.652 -52.917,132.575 -111.197,132.575c-28.098,-0 -57.329,-17.746 -57.329,-47.458c-0,-4.241 0.748,-8.483 1.87,-13.109c3.002,-17.756 16.869,-27.393 29.604,-27.393c1.496,0 2.628,0 4.124,0.385c11.987,2.308 21.357,14.273 21.357,28.547c0,2.318 0,5.011 -0.748,7.714c-3.376,17.361 -19.113,30.865 -32.222,30.865c-1.133,-0 -1.88,-0.385 -3.002,-0.385c9.369,4.626 17.607,6.945 25.107,6.945c40.363,-0 53.173,-65.043 65.01,-138.686l1.229,-7.65l1.218,-7.692c1.432,-8.996 2.874,-18.066 4.37,-27.105l1.175,-7.008l-67.981,0.01c-3.483,0 -6.314,-2.831 -6.314,-6.314c-0,-3.483 2.831,-6.314 6.314,-6.314l70.192,0.011c3.569,-19.808 7.596,-39.113 12.586,-56.838l-127.575,0.011c-3.483,-0 -6.314,-2.831 -6.314,-6.314c-0,-3.483 2.831,-6.314 6.314,-6.314l131.496,-0l4.583,-14.135c20.598,-70.833 65.406,-116.752 116.314,-118.397l2.842,-0.043Z" style="fill:#f2f2f2;"/></g></g></g></g></g></g></g></svg>